<?xml version="1.0" encoding="UTF-8"?>
<svg id="Glyph" xmlns="http://www.w3.org/2000/svg" version="1.1" viewBox="0 0 512 512">
  <!-- Generator: Adobe Illustrator 30.1.0, SVG Export Plug-In . SVG Version: 2.1.1 Build 136)  -->
  <defs>
    <style>
      .st0 {
        fill: #9b4600;
      }
    </style>
  </defs>
  <path class="st0" d="M183.58,476.3c-65.23,9.52-118.24-1.58-132.29-15.62-14.08-14.08-25.18-67.34-15.52-132.82,41.79,59.02,91.3,108.69,147.81,148.43h0Z"/>
  <path class="st0" d="M327.87,35.78c65.47-9.66,118.75,1.46,132.83,15.52,14.03,14.03,25.14,67.06,15.62,132.29-39.76-56.51-89.42-106.02-148.45-147.81Z"/>
  <path class="st0" d="M284.13,44.99c-50.29,14.13-103.97,41.22-150.94,88.19-46.98,46.98-74.06,100.66-88.19,150.94,48.9,76.37,110.24,137.79,182.64,182.94,50.35-14.11,104.13-41.22,151.17-88.26s74.16-100.83,88.26-151.17c-45.14-72.42-106.56-133.76-182.93-182.66h0ZM296.38,145.7c-5.86,3.47-11.62,7.26-17.34,11.07l11.78,11.78c4.69,4.69,4.69,12.29,0,16.98s-12.29,4.69-16.98,0l-14.66-14.66c-8.46,6.37-16.8,13.02-24.91,20.11l17.06,17.06c4.69,4.69,4.69,12.29,0,16.98s-12.29,4.69-16.98,0l-17.7-17.7c-3.36,3.26-5.18,4.21-22.02,23.01l17.22,17.22c4.69,4.69,4.69,12.29,0,16.98s-12.29,4.69-16.98,0l-15.74-15.74c-6.78,8.45-13.17,17.07-19.17,25.86l12.4,12.4c4.69,4.69,4.69,12.29,0,16.98s-12.29,4.69-16.98,0l-8.7-8.7c-3.57,5.97-7.22,11.92-10.43,18.02-3.09,5.86-10.35,8.11-16.21,5.02s-8.11-10.34-5.02-16.21c4.35-8.26,9.15-16.35,14.11-24.38l-13.23-13.26c-4.69-4.69-4.69-12.29,0-16.98s12.29-4.69,16.98,0l9.82,9.82c6.1-8.72,12.54-17.28,19.36-25.66l-6.67-6.67c-4.69-4.69-4.69-12.29,0-16.98s12.29-4.69,16.98,0l5.31,5.31c17.9-19.87,18.18-19.26,22.03-23.01l-4.82-4.82c-4.69-4.69-4.69-12.29,0-16.98s12.29-4.69,16.98,0l5.39,5.39c8.08-7.1,16.37-13.81,24.78-20.24l-7.66-7.66c-4.69-4.69-4.69-12.29,0-16.98s12.29-4.69,16.98,0l10.34,10.34c7.39-5.04,14.88-9.84,22.48-14.34,5.71-3.38,13.07-1.5,16.43,4.21,3.36,5.73,1.47,13.09-4.22,16.45h0Z"/>
</svg>