<?xml version="1.0" encoding="UTF-8"?>
<svg id="Capa_1" xmlns="http://www.w3.org/2000/svg" version="1.1" viewBox="0 0 800 800">
  <!-- Generator: Adobe Illustrator 30.1.0, SVG Export Plug-In . SVG Version: 2.1.1 Build 136)  -->
  <defs>
    <style>
      .st0 {
        fill: #fff;
      }

      .st1 {
        fill: #60b200;
      }
    </style>
  </defs>
  <path class="st1" d="M710.53,465c-20.17,0-39.14,7.86-53.4,22.12l-.36.36s-.01,0-.02.01l-14.93,14.93s0,0,0,0l-1.27,1.27-174.78,81.37c-.73.34-1.4.81-1.98,1.38-15.69,15.69-15.69,41.23,0,56.92,7.6,7.6,17.71,11.79,28.46,11.79,2.58,0,5.13-.25,7.61-.72-2.41,12.66,1.27,26.27,11.05,36.05,7.6,7.6,17.71,11.79,28.46,11.79,2.58,0,5.13-.25,7.61-.72-2.41,12.66,1.27,26.27,11.05,36.05,7.6,7.6,17.71,11.79,28.46,11.79h0c2.57,0,5.11-.25,7.58-.71-.47,2.47-.72,5.01-.72,7.58,0,10.75,4.19,20.86,11.79,28.46,7.85,7.85,18.15,11.77,28.46,11.77s20.61-3.92,28.46-11.77c.54-.54.99-1.17,1.33-1.86l84.23-172.62,16.31-16.32c14.26-14.26,22.12-33.23,22.12-53.4s-7.85-39.14-22.12-53.4c-14.27-14.27-33.23-22.13-53.4-22.13ZM743.72,594.52l-87.19-87.19,5.13-5.13,87.19,87.2-5.13,5.13ZM492.25,641.29c-7.05,0-13.67-2.75-18.66-7.73-10.01-10.01-10.28-26.14-.8-36.48l139.56-64.97-101.45,101.45c-4.98,4.98-11.61,7.73-18.65,7.73ZM539.37,688.41c-7.05,0-13.67-2.75-18.66-7.73-10.29-10.29-10.29-27.03,0-37.31l124.3-124.3,14.63,14.63,22.68,22.68-124.3,124.3c-4.98,4.98-11.61,7.73-18.66,7.73ZM586.48,735.52c-7.05,0-13.67-2.75-18.66-7.73-10.29-10.29-10.29-27.03,0-37.31l124.3-124.3,37.31,37.31-123.19,123.19h0l-1.11,1.11c-4.98,4.98-11.61,7.73-18.65,7.73ZM651.47,775.67c-10.34,9.52-26.5,9.27-36.52-.76-4.98-4.98-7.73-11.61-7.73-18.65s2.74-13.67,7.73-18.66l6.29-6.29,101.31-101.31-71.08,145.67ZM758.42,579.35l-86.72-86.73c10.95-8.91,24.52-13.76,38.83-13.76,16.47,0,31.95,6.41,43.6,18.06,11.65,11.65,18.06,27.13,18.06,43.6,0,14.32-4.85,27.88-13.76,38.83Z"/>
  <path class="st0" d="M92.56,669.76l-31.67,31.67c-2.71,2.71-2.71,7.1,0,9.8,1.35,1.35,3.13,2.03,4.9,2.03s3.55-.68,4.9-2.03l31.67-31.67c2.71-2.71,2.71-7.1,0-9.8-2.71-2.71-7.1-2.71-9.8,0Z"/>
  <path class="st0" d="M181.44,580.88l-75.79,75.79c-2.71,2.71-2.71,7.1,0,9.8,1.35,1.35,3.13,2.03,4.9,2.03s3.55-.68,4.9-2.03l75.79-75.79c2.71-2.71,2.71-7.1,0-9.8-2.71-2.71-7.09-2.71-9.8,0Z"/>
  <path class="st1" d="M750.26,49.73C717.74,17.21,673.65.01,622.76.01,553.41.01,481.53,32.13,425.52,88.13c-98.05,98.05-116.58,239.78-43.16,319.74l-143.62,143.62c-.59.59-1.03,1.28-1.37,2l-16.08-16.08c-1.9-1.9-4.73-2.53-7.26-1.62l-30.05,10.84c-.05.02-.1.04-.15.06-.09.04-.18.08-.27.12-.32.14-.62.3-.91.48-.06.03-.11.06-.17.1-.34.23-.65.49-.95.77-.03.03-.07.05-.1.08L2.03,727.66c-1.3,1.3-2.03,3.06-2.03,4.9s.73,3.6,2.03,4.9l60.49,60.49c1.35,1.35,3.13,2.03,4.9,2.03s3.55-.68,4.9-2.03l179.41-179.41s.05-.07.08-.1c.28-.29.54-.59.76-.93.02-.03.04-.07.07-.11.2-.31.37-.63.51-.96.04-.08.08-.17.11-.25.03-.06.06-.12.08-.19l10.84-30.05c.91-2.53.28-5.36-1.62-7.25l-16.03-16.03c.72-.33,1.41-.77,2-1.37l143.61-143.61c31.97,29.4,74.15,44.9,122.46,44.9,69.34,0,141.23-32.12,197.23-88.12,48.28-48.28,78.97-108.47,86.41-169.48,7.52-61.65-9.53-116.78-48-155.25ZM67.42,783.25l-50.69-50.69,169.61-169.61,50.69,50.69-169.61,169.61ZM244.02,601.02l-45.05-45.05,15.64-5.64,35.06,35.06-5.64,15.64ZM784.5,203.3c-7.07,57.95-36.35,115.26-82.45,161.36-53.42,53.42-121.73,84.05-187.43,84.05-47.14,0-87.84-15.78-117.7-45.65-73.54-73.54-56.31-210.42,38.4-305.13,53.42-53.42,121.74-84.06,187.43-84.06,47.13,0,87.84,15.79,117.7,45.65,35.39,35.39,51.03,86.45,44.04,143.77Z"/>
  <path class="st0" d="M773.52,169.77c-2.73-38.12-17.04-73.16-43.59-99.71-28.93-28.93-68.14-44.22-113.39-44.22-61.57,0-125.39,28.51-175.09,78.21-45.86,45.86-72.28,104.42-77.33,158.14-.81,9.6-.83,20.93-.27,30.26,2.66,38.26,16.97,73.44,43.6,100.08,0,0,0,0,0,.01,0,0,0,0,.01,0,26.05,26.05,62.06,41.09,101.68,43.82,3.86.23,7.75.39,11.7.39,61.57,0,125.39-28.51,175.09-78.21,13.38-13.37,25.07-27.67,35.07-42.54.11-.15.22-.3.31-.46,24.02-35.86,38.12-75.05,41.75-112.82.78-9.37.98-23.84.45-32.95ZM724.26,300.99l-38.56-38.56,66.26-66.26,7.21,7.21c-3.46,32.51-15.25,66.21-34.92,97.61ZM540.82,421.82l-7.25-7.25,66.26-66.26,38.61,38.61c-30.79,19.36-64.29,31.42-97.61,34.91ZM422.29,387.5l32.3-32.3,59.37,59.37-7.72,7.72c-32.8-2.7-61.49-14.56-83.95-34.78ZM377.74,293.71l7.68-7.68,59.37,59.37-32.29,32.29c-20.68-23.01-32.11-52.22-34.76-83.98ZM413.12,161.6l38.56,38.56-66.26,66.26-7.21-7.21c3.46-32.51,15.25-66.21,34.92-97.61ZM596.56,40.77l7.25,7.25-66.26,66.26-38.61-38.61c30.79-19.36,64.29-31.42,97.62-34.91ZM715.09,75.09l-32.3,32.3-59.37-59.37,7.72-7.72c32.8,2.69,61.49,14.56,83.95,34.78ZM759.64,168.88l-7.68,7.68-59.37-59.37,32.29-32.29c20.68,23.01,32.12,52.22,34.76,83.97ZM613.62,57.83l59.37,59.37-66.26,66.26-59.37-59.37,66.26-66.26ZM596.92,193.26l-66.26,66.26-59.37-59.37,66.26-66.26,59.37,59.37ZM520.85,269.33l-66.26,66.26-59.37-59.37,66.26-66.26,59.37,59.37ZM523.76,404.76l-59.37-59.37,66.26-66.26,59.37,59.37-66.26,66.26ZM540.46,269.33l66.26-66.26,59.37,59.37-66.26,66.26-59.37-59.37ZM616.53,193.26l66.26-66.26,59.37,59.37-66.26,66.26-59.37-59.37ZM451.24,113.85c11.3-11.3,23.35-21.43,35.95-30.32l40.56,40.56-66.26,66.26-40.53-40.53c8.81-12.52,18.92-24.59,30.29-35.97ZM686.14,348.74c-11.3,11.3-23.35,21.42-35.95,30.32l-40.56-40.56,66.26-66.26,40.53,40.53c-8.81,12.52-18.92,24.59-30.29,35.97Z"/>
</svg>