<?xml version="1.0" encoding="UTF-8"?>
<svg id="Capa_1" xmlns="http://www.w3.org/2000/svg" version="1.1" viewBox="0 0 511.95 511.95">
  <!-- Generator: Adobe Illustrator 30.1.0, SVG Export Plug-In . SVG Version: 2.1.1 Build 136)  -->
  <defs>
    <style>
      .st0 {
        fill: #0f0f0f;
      }

      .st1 {
        fill: #ededed;
      }
    </style>
  </defs>
  <path class="st0" d="M.56,272.95s-4.93-37.27,5.49-71.96,88.13-105.4,88.13-105.4L176.48,13.72s15.31-5.86,34.07-8.6,112.47,59.72,112.47,59.72l111.57,101.55,77.14,79.79s2.39,30.56-7.34,71.93-69.09,45.67-69.09,45.67l-90.11,95.12-22.96,43.67s-19.37,5.01-33.39,6.44-102.15-44.77-102.15-44.77L.56,272.95Z"/>
  <path class="st1" d="M289.9,483.74l-21.99.6h-.25c-5,0-9.07-4.01-9.14-9.01s3.89-9.13,8.89-9.26l14.85-.41c-3.12-6.82-6.33-13.58-9.81-20.18l-21.93,2.91c-.4.05-.81.08-1.21.08-4.81,0-8.8-3.74-9.11-8.55-.31-4.8,3.15-9.03,7.92-9.66l14.63-1.94c-3.83-6.46-7.87-12.78-12.04-19l-21.24,5.13c-4.91,1.18-9.85-1.84-11.03-6.75s1.84-9.85,6.75-11.03l14.16-3.42c-4.47-6.01-9.07-11.9-13.86-17.64l-20.5,7.28c-4.76,1.69-9.99-.8-11.68-5.55-1.69-4.76.79-9.99,5.55-11.68l13.8-4.9c-5.08-5.51-10.3-10.87-15.66-16.09l-19.67,9.4c-4.56,2.18-10.02.25-12.19-4.31-2.18-4.56-.25-10.02,4.31-12.19l13.02-6.23c-5.61-4.94-11.35-9.72-17.22-14.36l-18.42,11.32c-2.78,1.74-6.29,1.85-9.18.3-2.89-1.56-4.73-4.54-4.81-7.82s1.6-6.36,4.41-8.05l12.3-7.56c-6.07-4.34-12.23-8.55-18.54-12.56l-17.23,13.25c-2.59,1.99-6.04,2.45-9.06,1.2s-5.14-4.01-5.57-7.25.9-6.46,3.49-8.45l11.61-8.93c-6.5-3.7-13.15-7.14-19.85-10.48l-15.81,15.03c-2.36,2.26-5.76,3.09-8.9,2.16-3.14-.92-5.54-3.45-6.31-6.64-.76-3.18.23-6.53,2.61-8.78l10.56-10.04c-6.83-2.99-13.76-5.8-20.77-8.41l-14.16,16.62c-2.11,2.51-5.41,3.7-8.64,3.12s-5.9-2.86-6.99-5.95c-1.09-3.1-.44-6.54,1.71-9.02l9.58-11.24c-12.01-3.82-24.27-7.01-36.7-9.69-8.02,121.66,71.17,231.98,189.01,263.29,8.09,2.28,16.32,4.06,24.63,5.33,4.09.74,7.98,1.2,11.88,1.67,1.23.21,2.48.33,3.72.34l1.21.08c5.16.66,10.36,1.01,15.56,1.06h.21l.2-.05,1.3.05c16.86.64,33.74-.5,50.36-3.38-1.36-4.22-2.81-8.53-4.37-12.95-1.34-3.67-2.92-7.21-4.36-10.82h-.03Z"/>
  <path class="st1" d="M511.83,248.9l-.02-.58.05-.58-.17-.84.05-.73c-.09-5.11-.45-10.21-1.07-15.28l-.07-1.1c-.01-1.07-.11-2.14-.3-3.2-.45-4.25-.98-8.15-1.67-11.89-1.32-8.42-3.16-16.75-5.5-24.94-11.53-43.18-34.3-82.54-66-114.04C374.7,13.13,284.27-12.61,198.23,7.71c4.54,12.53,9.58,24.81,15.29,36.71l9.82-11.07c3.36-3.72,9.1-4.03,12.85-.71,3.75,3.32,4.12,9.06.83,12.84l-14.5,16.35c3.57,6.58,7.31,13.04,11.22,19.4l8.48-11.86c1.89-2.68,5.07-4.13,8.34-3.82,3.26.31,6.11,2.35,7.46,5.33,1.35,2.99,1,6.47-.92,9.12l-12.69,17.74c4.24,6.18,8.58,12.28,13.14,18.21l7.22-12.73c2.49-4.39,8.07-5.93,12.46-3.44s5.93,8.07,3.44,12.46l-10.75,18.96c4.84,5.69,9.88,11.2,15.02,16.61l5.79-13.28c2.05-4.57,7.4-6.64,12-4.64,4.59,2,6.72,7.33,4.76,11.95l-8.66,19.85c5.4,5.18,10.94,10.19,16.62,15.05l4.36-13.79c1.52-4.82,6.66-7.48,11.48-5.96,4.82,1.52,7.48,6.66,5.96,11.48l-6.58,20.79c5.92,4.58,11.94,9.05,18.11,13.3l2.95-14.39c1.01-4.95,5.84-8.13,10.79-7.12s8.13,5.84,7.12,10.79l-4.37,21.34c6.35,3.94,12.83,7.67,19.41,11.26l1.41-14.51c.5-5.02,4.97-8.68,9.98-8.19,5.02.49,8.69,4.95,8.21,9.97l-2.12,21.74c6.74,3.26,13.55,6.38,20.48,9.26l-.11-14.74c-.04-5.05,4.02-9.17,9.07-9.21h.07c5.02,0,9.1,4.05,9.14,9.08l.17,22.1c7.02,2.52,14.16,4.76,21.35,6.89l-1.66-14.72c-.39-3.26.99-6.48,3.63-8.43,2.64-1.96,6.12-2.35,9.12-1.03s5.07,4.15,5.42,7.41l2.46,21.82c3.82.93,7.58,2.02,11.44,2.84,5.92,1.27,12.27,2.4,18.87,3.47.31-6.49.43-12.94.2-19.27l.02-.02Z"/>
  <path class="st1" d="M477.74,279.8l-11.49,19.56c-2.57,4.34-8.16,5.78-12.5,3.23-4.35-2.55-5.8-8.14-3.26-12.49l8.85-15.05c-8.04-2.34-16.01-4.85-23.86-7.65l-13.37,18.11c-3,4.06-8.72,4.93-12.79,1.93s-4.93-8.72-1.93-12.79l10.47-14.19c-7.72-3.18-15.34-6.57-22.84-10.19l-15.39,16.83c-3.41,3.71-9.18,3.97-12.91.57-3.72-3.4-3.99-9.17-.6-12.9l11.97-13.09c-7.36-3.94-14.59-8.1-21.68-12.47l-17.09,15.16c-2.44,2.21-5.87,2.93-8.99,1.9s-5.45-3.65-6.1-6.88.48-6.55,2.96-8.7l13.22-11.73c-6.89-4.69-13.61-9.63-20.21-14.72l-18.59,13.29c-2.66,1.92-6.14,2.27-9.12.92s-5.02-4.2-5.33-7.46c-.31-3.26,1.14-6.44,3.82-8.34l14.55-10.4c-6.37-5.38-12.57-10.94-18.61-16.69l-20,11.35c-2.84,1.64-6.35,1.63-9.18-.02-2.84-1.65-4.56-4.7-4.53-7.99.03-3.28,1.82-6.29,4.69-7.9l15.49-8.79c-5.78-6.02-11.42-12.17-16.85-18.52l-20.93,9.12c-3,1.35-6.49.98-9.15-.97s-4.06-5.16-3.68-8.43,2.48-6.08,5.51-7.36l16.28-7.1c-5.12-6.57-10.02-13.32-14.76-20.21l-21.78,6.89c-.89.29-1.82.43-2.76.43-4.51,0-8.34-3.29-9.03-7.75s1.98-8.75,6.27-10.11l16.93-5.36c-4.42-7.07-8.63-14.27-12.63-21.63l-22.32,4.57c-.6.13-1.22.19-1.84.19-4.69,0-8.62-3.56-9.09-8.23s2.67-8.93,7.26-9.87l17.12-3.51c-6.58-13.67-12.42-27.68-17.48-41.98-.28.09-.59.14-.87.24l-.36.38-2.77.7c-1.72.42-3.41.94-5.07,1.56-1.9.68-3.8,1.36-5.62,2.12-2.02.74-3.65,1.33-5.21,1.99C95.94,45.21,44.65,96.28,18.54,160.8c-.63,1.36-1.17,2.77-1.62,4.2l-.46,1.3c-.79,1.78-1.43,3.57-2.08,5.35-.5,1.49-1.02,3.03-1.46,4.64-1.84,5.37-3.05,9.43-4.01,13.4-.63,1.99-.97,3.28-1.31,4.57-2.15,8.77-3.85,17.64-5.08,26.58,14.34,2.99,28.51,6.73,42.45,11.2l1.09-17.49c.2-3.26,2.13-6.16,5.06-7.62s6.4-1.24,9.12.57c2.72,1.81,4.27,4.93,4.07,8.19l-1.42,22.76c7.83,2.94,15.55,6.11,23.17,9.5l2.96-17.53c.84-4.98,5.56-8.33,10.54-7.49s8.33,5.56,7.49,10.54l-3.8,22.53c7.47,3.73,14.84,7.65,22.06,11.81l4.77-17.11c1.38-4.83,6.41-7.64,11.24-6.29s7.68,6.35,6.37,11.2l-6.15,22.05c7.04,4.49,13.92,9.21,20.68,14.1l6.57-16.61c1.19-3.05,3.93-5.23,7.16-5.71,3.24-.48,6.49.8,8.52,3.37s2.54,6.02,1.32,9.07l-8.47,21.43c6.53,5.18,12.9,10.55,19.11,16.1l8.3-15.89c1.51-2.9,4.45-4.77,7.72-4.9s6.35,1.48,8.1,4.23,1.9,6.24.39,9.14l-10.59,20.28c5.96,5.82,11.78,11.79,17.39,17.96l9.78-14.74c1.8-2.73,4.93-4.28,8.19-4.08,3.26.2,6.17,2.13,7.63,5.06s1.24,6.41-.57,9.13l-12.65,19.07c5.3,6.42,10.43,12.99,15.37,19.72l11.31-13.68c3.22-3.89,8.98-4.44,12.88-1.22s4.44,8.98,1.22,12.88l-14.53,17.58c4.63,6.91,9.06,13.98,13.27,21.19l12.58-12.34c2.33-2.3,5.71-3.17,8.86-2.3,3.15.88,5.6,3.37,6.41,6.53s-.13,6.53-2.47,8.81l-16.07,15.76c3.87,7.38,7.48,14.92,10.92,22.56l13.66-10.83c3.96-3.12,9.69-2.45,12.82,1.49s2.48,9.68-1.46,12.83l-17.74,14.08c1.42,3.58,2.99,7.08,4.31,10.71,1.89,5.35,3.58,10.48,5.19,15.51,1.86-.44,3.62-.82,5.58-1.33,7.18-1.85,14.27-4.06,21.23-6.63,7.15-2.51,14.16-5.43,20.99-8.73,54.31-25.17,98.01-68.68,123.42-122.88,3.34-6.85,6.29-13.88,8.84-21.06,2.58-6.95,4.81-14.03,6.68-21.2,2.11-8.07,3.65-15.22,4.7-21.87.81-4.61,1.48-9.19,2.04-13.74-7.44-1.19-14.56-2.44-21.2-3.87-3.78-.8-7.46-1.87-11.2-2.78v-.06Z"/>
</svg>