<?xml version="1.0" encoding="UTF-8"?>
<svg id="Capa_1" xmlns="http://www.w3.org/2000/svg" version="1.1" viewBox="0 0 488.84 488.84">
  <!-- Generator: Adobe Illustrator 30.1.0, SVG Export Plug-In . SVG Version: 2.1.1 Build 136)  -->
  <defs>
    <style>
      .st0 {
        fill: #ff8500;
      }
    </style>
  </defs>
  <ellipse cx="244.98" cy="244.48" rx="243.86" ry="244.36"/>
  <g id="_x31_4">
    <g>
      <path class="st0" d="M264.32,39.49c5.53-7.33,4.64-22.87,3.85-36.58-.03-.59-.06-1.17-.1-1.76C260.33.41,252.48,0,244.54,0,214.12,0,185.01,5.61,158.14,15.77c19.17,9.21,48.84,25.07,81.81,48.49,11.25-9.68,19.74-18.62,24.37-24.77Z"/>
      <path class="st0" d="M388.16,178.96c-12.05,1.36-22.21,3.34-30.9,6.11,41.54,72.52,57.73,164.14,61.7,230.52,41.15-41.93,67.28-98.61,69.75-161.39-28.35-34.85-65.92-79.17-100.55-75.24Z"/>
      <path class="st0" d="M141.23,116.36c29.18-6.07,56.6-20.76,78.47-36.27-45.61-31.41-83.65-47.71-91.21-50.82-47.32,25.58-85.18,66.33-107.21,115.71,28.63-11.41,59.64-17.21,90.1-22.87,9.85-1.83,20.04-3.72,29.86-5.76Z"/>
      <path class="st0" d="M310.17,123.46c2.61,2.62,5.2,5.28,7.78,7.99,9.52,9.99,18.16,20.93,26.08,32.49,11.54-4.36,25.12-7.45,41.38-9.28,38.31-4.33,72.37,26.01,101.6,59.42-6.27-50.65-27.99-96.48-60.35-132.63-17.67,2.13-37.36,5.74-57.43,11.73-13.17,3.93-34.14,14.62-59.06,30.28Z"/>
      <path class="st0" d="M278.01,249.69c10.02-33.96,21.64-58.43,44.14-74.32-6.75-9.69-14.02-18.79-21.89-27.05-3.64-3.82-7.32-7.52-11.02-11.15-90.26,61.44-213.91,174.3-225.15,272.09,37.53,41.06,88.89,69.22,146.71,77.21,21.05-41.92,40.87-127.12,52.65-177.8,5.66-24.34,10.54-45.36,14.57-58.98Z"/>
      <path class="st0" d="M175.67,195.84c31.47-29,64.71-55.01,95.11-75.91-10.13-8.97-20.3-17.23-30.27-24.81-25.25,18.98-58.31,37.67-94.29,45.16-10.08,2.1-20.4,4.01-30.37,5.87-38.44,7.14-75.34,14.05-106.37,31.36C3.43,198.79.12,221.21.12,244.42c0,51.92,16.24,100.02,43.84,139.6,17.88-70.8,79.21-139.81,131.71-188.18Z"/>
      <path class="st0" d="M291.83,105.97c29.08-18.54,54.15-31.36,70.41-36.21,14.61-4.36,28.93-7.54,42.5-9.86-31.35-27.24-69.68-46.66-111.99-55.13.94,17.07,1.35,35.81-8.92,49.43-4.88,6.47-13.13,15.33-23.87,24.96,10.52,8.19,21.21,17.11,31.87,26.81Z"/>
      <path class="st0" d="M301.45,256.61c-3.82,12.93-8.63,33.62-14.2,57.59-16.44,70.76-32.18,134.07-50.55,174.44,2.61.08,5.22.2,7.85.2,56.96,0,109.33-19.54,150.88-52.21-1.64-69.46-18.29-167.71-60.24-240.64-16.27,12.09-25.02,31.11-33.74,60.62Z"/>
    </g>
  </g>
</svg>