<?xml version="1.0" encoding="UTF-8"?>
<svg id="Layer_1" data-name="Layer 1" xmlns="http://www.w3.org/2000/svg" viewBox="0 0 80 80">
  <defs>
    <style>
      .cls-1 {
        fill: #feb223;
        stroke-width: 0px;
      }

      .cls-2 {
        isolation: isolate;
      }
    </style>
  </defs>
  <path class="cls-1" d="M63.61,14.43c1.2,0,2.34.53,3.1,1.46.77.93,1.08,2.14.86,3.32l-7.58,39.99c-.36,1.9-2.03,3.28-3.96,3.28H16.24c-1.2,0-2.34-.53-3.1-1.46-.77-.93-1.08-2.14-.86-3.32l7.58-39.99c.36-1.9,2.03-3.28,3.96-3.28h39.8M63.61,13.07H23.81c-2.59,0-4.81,1.84-5.29,4.39l-7.58,39.99c-.63,3.32,1.92,6.39,5.29,6.39h39.8c2.59,0,4.81-1.84,5.29-4.39l7.58-39.99c.63-3.32-1.92-6.39-5.29-6.39h0Z"/>
  <g class="cls-2">
    <path class="cls-1" d="M50.28,51.17h-27.45l5.29-26.46h23.7c.71,0,1.35.15,1.95.43.59.29,1.08.68,1.47,1.17.39.49.67,1.05.85,1.68s.19,1.29.04,1.97l-.83,4.27c-.18.81-.59,1.48-1.23,2.02-.64.54-1.39.81-2.25.81h.57c.55,0,1.07.12,1.55.36.48.24.88.55,1.19.95.32.39.54.84.68,1.34.14.5.16,1.02.06,1.55l-1.29,6.35c-.2,1.06-.71,1.92-1.51,2.57-.81.66-1.74.98-2.8.98ZM46.61,34.42c.45,0,.74-.24.87-.72l.34-1.78c.05-.28-.01-.52-.19-.74-.18-.21-.4-.32-.68-.32h-16.37l4.42,1.32-.45,2.23h12.06ZM47.03,44.78c.15-.13.25-.29.3-.49l.68-3.52c.05-.28,0-.52-.17-.74-.16-.21-.38-.32-.66-.32h-13.68l-1.06,5.29h14.03c.2,0,.39-.08.57-.23Z"/>
  </g>
</svg>