<svg xmlns="http://www.w3.org/2000/svg" width="24" height="24" viewBox="0 0 24 24">
    <defs>
        <radialGradient id="a" cx="38.971%" cy="34.263%" r="50.693%" fx="38.971%" fy="34.263%">
            <stop offset="0%" stop-color="#424141"/>
            <stop offset="100%"/>
        </radialGradient>
    </defs>
    <g fill="none" fill-rule="evenodd" transform="translate(2 2)">
        <circle cx="10" cy="10" r="9.167" fill="#FFF"/>
        <path fill="url(#a)" fill-rule="nonzero" d="M10 20C4.477 20 0 15.523 0 10S4.477 0 10 0s10 4.477 10 10-4.477 10-10 10zm-5.39-8.545a.873.873 0 0 0 .066.69l1.379 2.207a.705.705 0 0 0 .591.301l3.18-.224a.704.704 0 0 0 .541-.38l1.18-2.675a.716.716 0 0 0-.08-.66L9.451 8.093a.742.742 0 0 0-.62-.258l-2.6.34a.714.714 0 0 0-.521.41l-1.102 2.87zm5.388-3.793l2.03 2.641c.13.17.407.294.621.28l2.598-.178a.666.666 0 0 0 .53-.386l.986-2.495a.802.802 0 0 0-.08-.677l-1.707-2.445a.797.797 0 0 0-.607-.309l-2.921.072a.639.639 0 0 0-.532.368L9.91 6.997a.743.743 0 0 0 .089.665zm-8.446 3.88c.06.204.278.337.49.295l1.432-.28c.21-.04.44-.234.518-.434l1.15-2.994a1.127 1.127 0 0 0-.01-.717L4.31 5.415a.532.532 0 0 0-.53-.308l-1.04.136a.727.727 0 0 0-.526.408L.916 8.887a8.96 8.96 0 0 0-.038.386l.674 2.269zm10.996 5.121l-1.795-1.35c-.17-.127-.48-.22-.694-.204l-3.33.235a.61.61 0 0 0-.503.395l-.323 1.017a.716.716 0 0 0 .152.646l1.313 1.364a9.175 9.175 0 0 0 4.377.218l.93-1.75a.467.467 0 0 0-.127-.571zm1.507-.034c-.17.129-.389.386-.49.575l-.81 1.524a9.174 9.174 0 0 0 4.964-3.813l-.808-.107a1.08 1.08 0 0 0-.692.182l-2.164 1.639zm3.825-9.024a.517.517 0 0 0-.523.308l-1.043 2.638c-.078.197-.107.53-.065.736l.494 2.43c.042.208.25.4.46.428l.512.068c.212.03.383.052.383.052A9.113 9.113 0 0 0 19.151 10c0-.78-.098-1.538-.282-2.262l-.989-.133zM14.746 3.02l.203-.717A9.105 9.105 0 0 0 10 .849c-.556 0-1.1.05-1.628.144l-.267.735c-.071.2.025.438.215.533l2.127 1.054c.19.094.519.167.732.161l3.076-.076a.555.555 0 0 0 .491-.38zm-12.1 1.535l.382-.05 1.148-.15c.214-.028.522-.152.694-.278l1.931-1.418c.17-.125.37-.39.443-.591l.322-.89a9.161 9.161 0 0 0-4.92 3.377zm1.642 12.67s.567.61 1.461.988l-.382-.468a1.386 1.386 0 0 0-.617-.398l-.462-.122z"/>
    </g>
</svg>
