<?xml version="1.0" encoding="UTF-8"?>
<svg id="Layer_1" xmlns="http://www.w3.org/2000/svg" version="1.1" viewBox="0 0 438.12 460.59">
  <!-- Generator: Adobe Illustrator 30.1.0, SVG Export Plug-In . SVG Version: 2.1.1 Build 136)  -->
  <defs>
    <style>
      .st0 {
        fill: #fff;
      }

      .st1 {
        fill: #ff3e3e;
      }
    </style>
  </defs>
  <path class="st1" d="M317.09,106.97c29.54,0,53.49-23.95,53.49-53.49S346.63,0,317.09,0s-53.49,23.95-53.49,53.49,23.95,53.49,53.49,53.49h0Z"/>
  <path class="st0" d="M379.83,460.59c24.62,0,44.57-19.96,44.57-44.57s-19.96-44.57-44.57-44.57-44.57,19.96-44.57,44.57,19.96,44.57,44.57,44.57Z"/>
  <path class="st1" d="M203.33,146.21l-29.42,50.96c-13.11,22.72-7.67,51.05,11.62,67.46l69.48,69.49-23.91,89.44c-3.82,14.27,4.66,28.93,18.93,32.74,14.27,3.82,28.93-4.66,32.74-18.93l26.57-99.38c3.29-12.3-.23-25.42-9.23-34.43l-40.65-40.65,29.27-50.69,20.37,34.15c6.43,10.78,18.07,17.39,30.62,17.39h71.65c14.77,0,26.74-11.97,26.74-26.74s-11.97-26.74-26.74-26.74h-61.52l-41.46-69.5c-9.29-15.57-24.16-27.01-41.59-32.01l-94.06-26.97c-15.82-4.54-32.69,2.35-40.83,16.66l-40.41,71.11c-7.3,12.84-2.8,29.17,10.04,36.46l2.3,1.17c12.43,5.57,27.29.88,34.16-11.21l33.48-58.93,31.85,9.13v.02Z"/>
  <path class="st1" d="M186.49,291.02l-19.3-19.32c-7.21-8.05-12.36-17.43-15.31-27.4l-35.69,66.29-82.72-21.43-2.52-.53c-13.45-2.15-26.58,6.25-30.07,19.71-3.7,14.3,4.88,28.89,19.18,32.59l94.7,24.53c15.76,4.08,32.27-3.02,40.15-17.27l31.6-57.18h-.02Z"/>
</svg>