<?xml version="1.0" encoding="UTF-8"?>
<svg id="Layer_1" xmlns="http://www.w3.org/2000/svg" version="1.1" xmlns:xlink="http://www.w3.org/1999/xlink" viewBox="0 0 24 24">
  <!-- Generator: Adobe Illustrator 30.1.0, SVG Export Plug-In . SVG Version: 2.1.1 Build 136)  -->
  <defs>
    <style>
      .st0 {
        fill: url(#linear-gradient2);
      }

      .st1 {
        fill: url(#linear-gradient1);
      }

      .st2 {
        fill: none;
      }

      .st3 {
        fill: url(#linear-gradient);
      }

      .st4 {
        clip-path: url(#clippath);
      }
    </style>
    <clipPath id="clippath">
      <rect class="st2" width="24" height="24"/>
    </clipPath>
    <linearGradient id="linear-gradient" x1="15" y1="5.27" x2="17" y2="8.73" gradientUnits="userSpaceOnUse">
      <stop offset="0" stop-color="#0079b5"/>
      <stop offset="1" stop-color="#1a1d2b"/>
    </linearGradient>
    <linearGradient id="linear-gradient1" x1="5" y1="4.3" x2="14.5" y2="20.75" xlink:href="#linear-gradient"/>
    <linearGradient id="linear-gradient2" x1="12.75" y1="1.2" x2="14.25" y2="3.8" xlink:href="#linear-gradient"/>
  </defs>
  <g class="st4">
    <g>
      <path class="st3" d="M14.27,6c-.55.95-.22,2.18.73,2.73.95.55,2.18.22,2.73-.73s.22-2.18-.73-2.73-2.18-.22-2.73.73Z"/>
      <path class="st1" d="M15.84,10.41s-1.63-.94-2.6-1.5c-2.13-1.24-3.01-3.83-2.18-6.07.17-.46-.01-.97-.43-1.21-.53-.3-1.22-.07-1.43.5-.95,2.51-.35,5.35,1.46,7.27l-4.65,8.05c-.28.48-.11,1.09.37,1.37s1.09.11,1.37-.37l1-1.73,1.73,1-2.5,4.33c-.28.48-.11,1.09.37,1.37.48.28,1.09.11,1.37-.37l5.79-10.02c.98,1.34,1.26,3.12.66,4.72-.17.45.02.96.43,1.2.53.31,1.22.08,1.44-.5.97-2.62.41-5.84-2.2-8.04Z"/>
      <path class="st0" d="M12.75,3.8c.72.41,1.63.17,2.05-.55.41-.72.17-1.63-.55-2.05-.72-.41-1.63-.17-2.05.55-.41.72-.17,1.64.55,2.05Z"/>
    </g>
  </g>
</svg>