<?xml version="1.0" encoding="UTF-8"?>
<svg id="Ice_Hockey" xmlns="http://www.w3.org/2000/svg" version="1.1" viewBox="0 0 512 512">
  <!-- Generator: Adobe Illustrator 30.1.0, SVG Export Plug-In . SVG Version: 2.1.1 Build 136)  -->
  <defs>
    <style>
      .st0 {
        fill: #fff;
      }

      .st1 {
        fill: #f9f9f9;
      }

      .st2 {
        fill: #00cfff;
      }
    </style>
  </defs>
  <path class="st2" d="M229.44,353.12c-2.88,6.24-9.28,10.24-16.16,10.24h-112.16c-27.52,0-49.92,22.4-49.92,49.92v16.96c0,27.36,22.4,49.76,49.92,49.76h147.52c19.36,0,36.96-11.36,45.12-28.8l76.8-164.96v-.16l-90.24-41.92-50.88,108.96Z"/>
  <path class="st0" d="M293.82,215.07l15.04-32.33,90.44,42.08-15.04,32.33-90.44-42.08Z"/>
  <path class="st2" d="M322.4,153.92l90.24,41.92,15.04-32.32-90.24-42.08-15.04,32.48Z"/>
  <path class="st0" d="M457.76,64.8c-4.64-12.48-13.76-22.56-25.76-28.16-24.96-11.52-54.56-.8-66.24,24.16l-14.72,31.68,90.24,42.08,14.72-31.68c5.76-12,6.24-25.6,1.76-38.08Z"/>
  <path class="st1" d="M131.2,328.8c39.68,0,72-32.16,72-71.84s-32.32-72-72-72-72,32.16-72,72,32.32,71.84,72,71.84Z"/>
</svg>