<?xml version="1.0" encoding="UTF-8"?>
<svg id="Layer_1" xmlns="http://www.w3.org/2000/svg" version="1.1" xmlns:xlink="http://www.w3.org/1999/xlink" viewBox="0 0 215 397">
  <!-- Generator: Adobe Illustrator 30.1.0, SVG Export Plug-In . SVG Version: 2.1.1 Build 136)  -->
  <defs>
    <style>
      .st0 {
        fill: url(#linear-gradient);
        fill-rule: evenodd;
      }
    </style>
    <linearGradient id="linear-gradient" x1="107.12" y1="0" x2="107.12" y2="396.72" gradientUnits="userSpaceOnUse">
      <stop offset="0" stop-color="#d09f3d"/>
      <stop offset="1" stop-color="#3b290f"/>
    </linearGradient>
  </defs>
  <path class="st0" d="M121.98,1.13c-3.31,1.32-6.83,4.69-8.73,8.34-2.4,4.62-8.24,22.74-8.25,25.63,0,1.43-.8,3.28-1.76,4.12-1.58,1.37-2.73,1.23-11.75-1.42-11.62-3.41-23.11-4.54-29.26-2.87-3.19.87-7.6,4.11-17.5,12.87C17.1,72.23,0,91.04,0,97.01c0,4.26,19.13,27.12,28.17,33.65l3.94,2.85-.52,6.21c-.58,6.93-3.05,12.54-7.14,16.29-4.38,4.01-6.42,9.59-6.44,17.63-.02,5.5-.61,8.41-2.59,12.74-2.19,4.79-2.41,6.09-1.49,8.87.59,1.79,2.21,8.51,3.6,14.93,1.39,6.42,5.03,19.47,8.09,29,6.31,19.65,7.09,23.68,5.37,27.83-.93,2.24-.95,4.45-.11,9.29.88,5.05.79,8.7-.45,17.78-2.95,21.61-2.96,22.14-.18,24.72,3.6,3.35,8.55,3.83,14.08,1.39,6.55-2.9,8.66-6.77,8.66-15.93,0-5.34.53-8.24,2-10.99,2.45-4.57,2.54-8.35.3-12.56-.94-1.76-2.45-5.9-3.37-9.2-.92-3.3-2.4-8.61-3.3-11.8-1.83-6.54-2.22-25.55-.7-34.82,1.84-11.24,2.95-13.93,6.31-15.34,3.04-1.28,3.21-1.21,5.8,2.32,3.33,4.55,5.47,6.4,10.14,8.77,2.29,1.16,7.6,6.59,14.05,14.37,9.62,11.59,17.75,19.53,27.03,26.35,5.53,4.07,12.05,13.07,11.27,15.55-.35,1.1-4.38,5.85-8.96,10.56-8.99,9.24-14.36,18.05-16.86,27.67-1.98,7.62-19.89,40.05-22.85,41.37-1.24.55-2.59,2.27-2.99,3.83-.41,1.56-2.68,6.05-5.06,9.97-3.77,6.24-4.31,7.87-4.31,12.95,0,4.07.45,6.1,1.5,6.77,2.92,1.87,8.59,2.96,15.5,2.97,3.85,0,13.3.95,21,2.09,21.62,3.22,32.5,1.65,32.5-4.67,0-2.02-.86-2.91-4.25-4.39-2.34-1.02-6.4-2.18-9.03-2.56-5.51-.81-15.11-6.6-20.26-12.22q-3.38-3.69-1.42-5.79c1.17-1.25,1.96-3.49,1.96-5.56,0-2.76,1.6-5.65,7.75-14.04,4.26-5.81,10.83-14.12,14.59-18.46,3.76-4.34,10.32-13.07,14.57-19.4,4.25-6.33,10.69-15.51,14.31-20.4,3.62-4.89,6.85-10.23,7.18-11.85.42-2.12-.37-5.14-2.82-10.7-1.87-4.26-5.29-13.1-7.6-19.65-2.31-6.55-5.7-15.19-7.55-19.2-4.18-9.09-13.9-25.71-17.38-29.7-3.21-3.68-8.03-10.08-10.33-13.71-2-3.15-2.25-8.96-.52-12.1.66-1.2,1.51-6.01,1.9-10.68.77-9.36,3.16-20.12,5.33-24,.77-1.38,1.72-4.24,2.12-6.37.66-3.5,5.61-10.63,7.39-10.63.4,0,1.26,2.36,1.92,5.25.66,2.89,2.73,8.4,4.6,12.25,1.87,3.85,5.01,11.66,6.98,17.35,7.36,21.34,11.47,27.18,33.26,47.34,3.96,3.66,8.79,8.88,10.74,11.59,1.95,2.72,5.35,6.19,7.56,7.72,3.84,2.66,5.14,5.69,3.01,7-1.72,1.07-1.1,3.21,1.43,4.86,2.96,1.94,5.33.96,10.74-4.46,4.84-4.84,6-7.27,6.08-12.69.06-4.07-.34-4.94-3.57-7.73-2-1.73-5.56-3.69-7.91-4.36-2.35-.67-5.48-1.68-6.95-2.26-4.09-1.59-10.92-11.07-17.67-24.55-3.36-6.71-7.4-13.68-8.99-15.5-4.04-4.65-4.55-5.83-8.29-19.31-3.11-11.2-3.33-13.07-3.4-28-.11-22.96-.69-24.42-16.5-41.07-6.04-6.36-10.98-11.99-10.98-12.5,0-1.51,2.74-1.08,6.74,1.07,4.51,2.42,6.59,2.52,8.35.39,1.71-2.06,3.71-5.43,4.49-7.57.34-.92,1.24-1.92,2.02-2.22.77-.3,1.4-1.45,1.4-2.57s.62-2.03,1.38-2.03c2.75,0,3.73-2.55,2.72-7.08-.68-3.03-.63-4.91.19-6.36,3.72-6.64,4.49-12.16,2.3-16.4-2.21-4.28-11.09-12.03-16.85-14.71-5.64-2.63-15.85-3.28-20.74-1.34ZM40.62,99.91c-1.38,3.08-2.81,6.88-3.2,8.43-.59,2.4-.91,2.62-2.07,1.46-1.58-1.58-5.37-11.86-5.37-14.56,0-1.23,2.02-2.81,6.25-4.9l6.25-3.09.32,3.52c.2,2.19-.62,5.64-2.18,9.12Z"/>
</svg>