<?xml version="1.0" encoding="UTF-8"?>
<svg version="1.1" xmlns="http://www.w3.org/2000/svg" width="124" height="110">
<path d="M0 0 C5.58672194 -0.07436251 11.17315339 -0.12870254 16.76025391 -0.16479492 C18.65939353 -0.17984691 20.55849859 -0.20029316 22.45751953 -0.22631836 C25.19312081 -0.26285992 27.928261 -0.27976238 30.6640625 -0.29296875 C31.50804596 -0.30845261 32.35202942 -0.32393646 33.22158813 -0.33988953 C38.23003312 -0.34130746 41.67863097 0.18348903 46 3 C50.84367842 9.28369093 51.59378278 14.29202726 51 22 C49.58058951 29.91744565 45.51084636 35.50360162 39.2109375 40.38671875 C31.49316115 44.76832484 21.55767469 43.31340416 13 43 C12.90912109 44.12148437 12.90912109 44.12148437 12.81640625 45.265625 C12.73261719 46.25046875 12.64882813 47.2353125 12.5625 48.25 C12.48128906 49.22453125 12.40007813 50.1990625 12.31640625 51.203125 C12 54 12 54 11 58 C4.4 58 -2.2 58 -9 58 C-9 53.39101867 -8.95927012 49.89815722 -8.17382812 45.52368164 C-7.99364136 44.50315201 -7.81345459 43.48262238 -7.62780762 42.4311676 C-7.4309436 41.35173386 -7.23407959 40.27230011 -7.03125 39.16015625 C-6.73160339 37.47701576 -6.73160339 37.47701576 -6.42590332 35.75987244 C-5.78957514 32.19304548 -5.14491077 28.6277841 -4.5 25.0625 C-4.06585445 22.63746851 -3.6322546 20.21233926 -3.19921875 17.78710938 C-2.13913089 11.85692593 -1.07220353 5.92800417 0 0 Z M18 14 C17.34 18.95 16.68 23.9 16 29 C22.89106551 29.21544885 22.89106551 29.21544885 28 26 C30.31361802 22.52957297 30.51020728 21.08165827 30 17 C28.57951684 14.93243871 28.57951684 14.93243871 26 14 C23.27930412 13.76635245 20.74133849 13.86293308 18 14 Z " fill="#247A23" transform="translate(43,26)"/>
<path d="M0 0 C1.32084846 -0.00832352 1.32084846 -0.00832352 2.66838074 -0.01681519 C5.56122301 -0.02856734 8.45248361 -0.00438536 11.34521484 0.02148438 C13.3634738 0.02319644 15.38173498 0.02312882 17.3999939 0.0213623 C21.62153511 0.02301292 25.84254361 0.04166675 30.06396484 0.07324219 C35.47230253 0.11296968 40.87994468 0.11727986 46.28840065 0.10977936 C50.45258953 0.10670909 54.61662231 0.11883143 58.78077316 0.13591003 C60.77504879 0.14293487 62.7693421 0.14606519 64.76362991 0.1452179 C67.54977633 0.1470172 70.33509128 0.16840882 73.12109375 0.1953125 C74.35400902 0.1909166 74.35400902 0.1909166 75.61183167 0.18643188 C80.17209153 0.25431611 83.28153626 0.58248733 86.93115234 3.61523438 C91.95170837 10.87168643 88.66900633 22.33174154 87.19505692 30.44456005 C86.73455009 32.90531416 86.26329697 35.36384014 85.79052734 37.82226562 C85.46322227 39.55943497 85.1365119 41.29671646 84.81036377 43.03410339 C84.12821052 46.65363012 83.43804185 50.27151097 82.7421875 53.88842773 C81.85392376 58.50964407 80.98739312 63.13463152 80.12694931 67.76109791 C79.4583901 71.3411804 78.77767641 74.91887058 78.09339142 78.4959774 C77.7689797 80.20038059 77.44845664 81.90552898 77.13201141 83.61142921 C76.68782979 85.99653771 76.22714084 88.37789505 75.76220703 90.7590332 C75.63632706 91.45372208 75.51044708 92.14841095 75.38075256 92.864151 C74.09165955 99.29438763 71.8746045 104.33606283 66.74795532 108.51428223 C62.55904508 111.22848448 58.74466442 111.30964264 53.86230469 111.23046875 C52.54145622 111.23879227 52.54145622 111.23879227 51.19392395 111.24728394 C48.30108168 111.25903609 45.40982107 111.23485411 42.51708984 111.20898438 C40.49883089 111.20727231 38.4805697 111.20733993 36.46231079 111.20910645 C32.24076957 111.20745583 28.01976108 111.188802 23.79833984 111.15722656 C18.39000215 111.11749907 12.98236001 111.11318889 7.57390404 111.12068939 C3.40971516 111.12375966 -0.75431762 111.11163732 -4.91846848 111.09455872 C-6.9127441 111.08753388 -8.90703741 111.08440356 -10.90132523 111.08525085 C-13.68747164 111.08345155 -16.47278659 111.06205993 -19.25878906 111.03515625 C-20.49170433 111.03955215 -20.49170433 111.03955215 -21.74952698 111.04403687 C-26.30978685 110.97615264 -29.41923158 110.64798142 -33.06884766 107.61523438 C-38.08940368 100.35878232 -34.80670164 88.89872721 -33.33275223 80.7859087 C-32.8722454 78.32515459 -32.40099228 75.86662861 -31.92822266 73.40820312 C-31.60091758 71.67103378 -31.27420721 69.93375229 -30.94805908 68.19636536 C-30.26590583 64.57683863 -29.57573716 60.95895778 -28.87988281 57.34204102 C-27.99161907 52.72082468 -27.12508844 48.09583723 -26.26464462 43.46937084 C-25.59608542 39.88928835 -24.91537172 36.31159817 -24.23108673 32.73449135 C-23.90667501 31.03008816 -23.58615195 29.32493977 -23.26970673 27.61903954 C-22.8255251 25.23393104 -22.36483615 22.8525737 -21.89990234 20.47143555 C-21.77402237 19.77674667 -21.6481424 19.0820578 -21.51844788 18.36631775 C-20.22935487 11.93608112 -18.01229981 6.89440592 -12.88565063 2.71618652 C-8.69674039 0.00198427 -4.88235974 -0.07917389 0 0 Z M-14.29467773 9.71533203 C-16.87437656 13.93188119 -17.56177643 18.19100876 -18.45556641 23.01367188 C-18.76393684 24.58319107 -18.76393684 24.58319107 -19.07853699 26.18441772 C-19.75667758 29.65868791 -20.41310168 33.13667324 -21.06884766 36.61523438 C-21.54406277 39.0805694 -22.02015306 41.54573587 -22.49707031 44.01074219 C-23.7343726 50.4378588 -24.94569057 56.86954498 -26.14575195 63.30371094 C-26.76677189 66.63285472 -27.39521377 69.96055502 -28.02524281 73.28800392 C-28.63444628 76.51336604 -29.23593072 79.74016727 -29.83837891 82.96679688 C-30.06330521 84.15109283 -30.28823151 85.33538879 -30.51997375 86.55557251 C-30.82610847 88.21053238 -30.82610847 88.21053238 -31.13842773 89.89892578 C-31.31876053 90.86134186 -31.49909332 91.82375793 -31.68489075 92.81533813 C-32.56815584 98.94620773 -32.56815584 98.94620773 -30.19384766 104.42773438 C-27.38298872 107.32126563 -26.69444284 107.5886633 -22.6038208 107.7624054 C-21.08341707 107.77756356 -19.5629509 107.78704502 -18.04248047 107.79223633 C-16.79828842 107.80209312 -16.79828842 107.80209312 -15.52896118 107.81214905 C-12.7766308 107.83190224 -10.02435506 107.84354981 -7.27197266 107.85351562 C-5.86275669 107.85962892 -5.86275669 107.85962892 -4.42507172 107.86586571 C0.54848512 107.88673618 5.52201429 107.90103303 10.49560547 107.91040039 C15.63158786 107.92146013 20.76713643 107.95585223 25.90296555 107.99557209 C29.85268963 108.0217275 33.80231027 108.03009133 37.75211334 108.03368187 C39.64512305 108.03855149 41.53812802 108.05017617 43.43105316 108.06871986 C46.08345296 108.09308602 48.73472941 108.09215091 51.38720703 108.08520508 C52.1666568 108.09801514 52.94610657 108.1108252 53.74917603 108.12402344 C60.04575245 108.06404569 63.56023063 105.85222775 68.15698242 101.51513672 C70.73668125 97.29858756 71.42408112 93.03945999 72.31787109 88.21679688 C72.62624153 86.64727768 72.62624153 86.64727768 72.94084167 85.04605103 C73.61898226 81.57178084 74.27540636 78.09379551 74.93115234 74.61523438 C75.40636746 72.14989935 75.88245775 69.68473288 76.359375 67.21972656 C77.59667728 60.79260995 78.80799526 54.36092377 80.00805664 47.92675781 C80.62907658 44.59761403 81.25751846 41.26991373 81.88754749 37.94246483 C82.49675097 34.71710271 83.0982354 31.49030148 83.70068359 28.26367188 C83.92560989 27.07937592 84.15053619 25.89507996 84.38227844 24.67489624 C84.58636826 23.57158966 84.79045807 22.46828308 85.00073242 21.33154297 C85.18106522 20.36912689 85.36139801 19.40671082 85.54719543 18.41513062 C86.43046053 12.28426102 86.43046053 12.28426102 84.05615234 6.80273438 C81.24529341 3.90920312 80.55674753 3.64180545 76.46612549 3.46806335 C74.94572176 3.45290519 73.42525559 3.44342373 71.90478516 3.43823242 C70.66059311 3.42837563 70.66059311 3.42837563 69.39126587 3.4183197 C66.63893549 3.39856651 63.88665975 3.38691894 61.13427734 3.37695312 C59.72506138 3.37083983 59.72506138 3.37083983 58.2873764 3.36460304 C53.31381957 3.34373257 48.34029039 3.32943572 43.36669922 3.32006836 C38.23071683 3.30900862 33.09516825 3.27461652 27.95933914 3.23489666 C24.00961505 3.20874125 20.05999442 3.20037742 16.11019135 3.19678688 C14.21718164 3.19191726 12.32417667 3.18029258 10.43125153 3.16174889 C7.77885172 3.13738273 5.12757528 3.13831784 2.47509766 3.14526367 C1.305923 3.12604858 1.305923 3.12604858 0.11312866 3.10644531 C-6.18344776 3.16642306 -9.69792594 5.378241 -14.29467773 9.71533203 Z " fill="#247A23" transform="translate(35.06884765625,-0.615234375)"/>
</svg>
