<?xml version="1.0" encoding="UTF-8"?>
<svg id="Layer_1" xmlns="http://www.w3.org/2000/svg" version="1.1" viewBox="0 0 100 100">
  <!-- Generator: Adobe Illustrator 30.1.0, SVG Export Plug-In . SVG Version: 2.1.1 Build 136)  -->
  <defs>
    <style>
      .st0 {
        fill: #8e6500;
      }

      .st1 {
        fill: #0079b5;
      }

      .st2 {
        fill: #ff3e3e;
      }

      .st3 {
        fill: #ffad5c;
      }

      .st4 {
        fill: #60b200;
      }

      .st5 {
        fill: #a900b2;
      }
    </style>
  </defs>
  <circle class="st3" cx="50.13" cy="28.63" r="9.94"/>
  <circle class="st2" cx="35.76" cy="52.32" r="9.94"/>
  <circle class="st5" cx="64.72" cy="52.55" r="9.94"/>
  <circle class="st1" cx="26.38" cy="75.9" r="9.94"/>
  <circle class="st4" cx="50.41" cy="75.9" r="9.94"/>
  <circle class="st0" cx="74.43" cy="76.11" r="9.94"/>
  <path d="M96.66,81.81L58.67,10.59c-3.32-7.6-14.24-7.6-17.57,0L3.12,81.81c-2.37,6.17,2.37,13.29,9.02,13.29h75.97c6.65,0,11.4-7.12,8.55-13.29ZM73.87,52.37c0,5.22-4.27,9.5-9.5,9.5s-9.5-4.27-9.5-9.5,4.27-9.5,9.5-9.5,9.5,4.27,9.5,9.5ZM50.13,19.14c5.22,0,9.5,4.27,9.5,9.5s-4.27,9.5-9.5,9.5-9.5-4.27-9.5-9.5,4.27-9.5,9.5-9.5ZM26.39,85.61c-5.22,0-9.5-4.27-9.5-9.5s4.27-9.5,9.5-9.5,9.5,4.27,9.5,9.5-4.27,9.5-9.5,9.5ZM26.39,52.37c0-5.22,4.27-9.5,9.5-9.5s9.5,4.27,9.5,9.5-4.27,9.5-9.5,9.5-9.5-4.27-9.5-9.5ZM50.13,85.61c-5.22,0-9.5-4.27-9.5-9.5s4.27-9.5,9.5-9.5,9.5,4.27,9.5,9.5-4.27,9.5-9.5,9.5ZM73.87,85.61c-5.22,0-9.5-4.27-9.5-9.5s4.27-9.5,9.5-9.5,9.5,4.27,9.5,9.5-4.27,9.5-9.5,9.5Z"/>
</svg>