<?xml version="1.0" encoding="UTF-8"?>
<svg id="Layer_1" xmlns="http://www.w3.org/2000/svg" version="1.1" viewBox="0 0 512 512">
  <!-- Generator: Adobe Illustrator 30.1.0, SVG Export Plug-In . SVG Version: 2.1.1 Build 136)  -->
  <defs>
    <style>
      .st0 {
        fill: #aa6d00;
      }

      .st1 {
        fill: #ff2727;
      }

      .st2 {
        fill: #ffbc00;
      }
    </style>
  </defs>
  <g>
    <path class="st0" d="M56,213.77l260.1,161.79c-38.91,14.34-75.78,12.29-76.8,12.29-68.61,0-87.04,74.75-118.78,115.71-3.07,5.12-9.22,6.14-14.34,3.07l-74.75-46.08c-5.12-3.07-6.14-9.22-3.07-14.34,22.53-48.13,82.94-96.26,49.15-161.79-11.26-23.55-18.43-47.1-21.5-70.66Z"/>
    <path class="st1" d="M431.81,243.46c-14.34,54.27-48.13,97.28-93.18,120.83L54.98,189.19c1.02-30.72,10.24-61.44,26.62-90.11C132.8,14.09,242.37-25.85,339.65,28.42c78.85,44.03,114.69,128,92.16,215.04h0Z"/>
  </g>
  <path class="st2" d="M466.63,472.84c-18.43,29.7-57.34,38.91-87.04,20.48s-38.91-57.34-20.48-87.04,57.34-37.89,86.02-20.48c30.72,19.46,39.94,58.37,21.5,87.04Z"/>
</svg>