<svg xmlns="http://www.w3.org/2000/svg" viewBox="0 0 21.47 21.47"><defs><style>.cls-1{fill:#86c03f;}.cls-2{fill:#fff;}.cls-3{fill:none;stroke:#78aa38;stroke-miterlimit:10;stroke-width:1.21px;}</style></defs><g id="Layer_2" data-name="Layer 2"><g id="Layer_1-2" data-name="Layer 1"><path class="cls-1" d="M20.45,13.61A10.13,10.13,0,0,1,.66,9.69L4.7,14a6.75,6.75,0,0,0,4.7,2.14h.25a6.66,6.66,0,0,0,4.58-1.8,6.74,6.74,0,0,0,.34-9.52l-4-4.25a9.75,9.75,0,0,1,3,.42A10.12,10.12,0,0,1,20.45,13.61Z"/><path class="cls-2" d="M14.23,14.38a6.66,6.66,0,0,1-4.58,1.8H9.4A6.75,6.75,0,0,1,4.7,14l-4-4.35A9,9,0,0,1,1,8.09l4.7,5.06a5.43,5.43,0,1,0,8-7.4L9,.76A9,9,0,0,1,10.62.61l4,4.25A6.74,6.74,0,0,1,14.23,14.38Z"/><path class="cls-1" d="M13.34,13.43a5.46,5.46,0,0,1-7.68-.28L1,8.09,1,7.86A10.14,10.14,0,0,1,9,.76l4.65,5A5.45,5.45,0,0,1,13.34,13.43Z"/><circle class="cls-3" cx="10.74" cy="10.74" r="10.13"/></g></g></svg>
