<?xml version="1.0" encoding="UTF-8"?>
<svg id="Layer_1" xmlns="http://www.w3.org/2000/svg" version="1.1" viewBox="0 0 512 512">
  <!-- Generator: Adobe Illustrator 30.1.0, SVG Export Plug-In . SVG Version: 2.1.1 Build 136)  -->
  <defs>
    <style>
      .st0 {
        fill: #0074ff;
      }

      .st1 {
        fill: #ffbc00;
      }
    </style>
  </defs>
  <path class="st1" d="M319.04,41.19c25.67,7.63,49.78,19.77,71.2,35.84-68.87,33.09-121.48,92.57-145.92,164.96-26.91,5.44-54.51,6.52-81.76,3.2,23.88-85.65,79.95-158.74,156.48-204h0Z"/>
  <path class="st1" d="M293.44,342.63c-10.55-25.22-25.2-48.52-43.36-68.96-75.08,14.97-153.03-1.02-216.16-44.32-1.15,8.86-1.74,17.79-1.76,26.72.05,17.85,2.25,35.63,6.56,52.96,77.4,43.63,168.66,55.67,254.72,33.6Z"/>
  <path class="st1" d="M274.4,252.55c50.54,57.55,75.7,133.08,69.76,209.44,24.65-10.61,47.2-25.57,66.56-44.16-.9-88.81-36.1-173.82-98.24-237.28-16.6,21.72-29.47,46.05-38.08,72h0Z"/>
  <path class="st0" d="M54.08,352.07c45.62,96.75,153.53,147.45,257.12,120.8,4.18-33.47,1.79-67.44-7.04-100-83.24,22.42-171.69,15.06-250.08-20.8h0Z"/>
  <path class="st0" d="M274.08,32.07h-17.92c-100.21.1-188.16,66.75-215.36,163.2,26.93,20.32,57.59,35.16,90.24,43.68,22.21-83.22,72.8-156.06,143.04-205.92v-.96Z"/>
  <path class="st0" d="M416.16,100.07c-31.07,13.13-59.23,32.27-82.88,56.32,60.9,60.85,98.7,141.02,106.88,226.72,60.88-87.9,50.81-206.64-24-283.04Z"/>
</svg>